<?xml version="1.0" encoding="utf-8"?>
<!-- Generator: Adobe Illustrator 27.7.0, SVG Export Plug-In . SVG Version: 6.00 Build 0)  -->
<svg version="1.1" xmlns="http://www.w3.org/2000/svg" xmlns:xlink="http://www.w3.org/1999/xlink" x="0px" y="0px"
	 viewBox="0 0 1000 1000" style="enable-background:new 0 0 1000 1000;" xml:space="preserve">
<style type="text/css">
	.st0{fill:none;}
	.st1{fill:#42AB9E;}
	.st2{fill:#FFB41D;}
	.st3{fill:#FFFFFF;}
	.st4{font-family:'Tahoma-Bold';}
	.st5{font-size:106.001px;}
	.st6{font-size:82.1181px;}
</style>
<g id="background">
</g>
<g id="objects">
	<path class="st0" d="M136.91,422.02c-17.27-17.24-38.79-28.67-62.19-33.32v95.15h95.54C165.54,460.58,154.09,439.18,136.91,422.02z
		"/>
	<path class="st0" d="M172.7,534.71c-0.11,0.03-0.21,0.04-0.31,0.07l0,0c-23.27,4.68-44.68,16.09-61.87,33.26
		c-17.19,17.16-28.63,38.55-33.36,61.83h95.54v-97.5h0V534.71z"/>
	<path class="st1" d="M172.7,389.24v143.12v97.5H77.16c4.72-23.28,16.16-44.67,33.36-61.83c17.18-17.17,38.59-28.58,61.87-33.26
		c-0.12-0.8-0.25-1.61-0.36-2.41H77.6c0,0,0,0,0,0h0c-0.46,0.44-0.9,0.89-1.36,1.33C60.6,549.32,48.3,567.52,39.7,587.8
		c-8.92,21-13.45,43.3-13.49,66.28l-0.04,24.29h194.32h0.31V532.36h0.04l-0.01-1.68l-0.03-22.57V388.85h0.1h0.31v-0.07h95.54
		c-4.71,23.28-16.16,44.67-33.35,61.83c-12.33,12.31-26.82,21.66-42.62,27.69v5.55h77.97c15.14-15.38,27.07-33.2,35.48-53.01
		c8.91-21,13.44-43.3,13.48-66.28l0.04-24.29H172.7V389.24z"/>
	<path class="st2" d="M172.7,534.71v-2.35h-0.68H77.61c0,0,0,0,0,0h94.42c0.12,0.8,0.24,1.61,0.36,2.41l0,0
		C172.5,534.75,172.59,534.73,172.7,534.71z"/>
	<path d="M172.02,532.36h0.68h0V389.24c-0.51-0.52-1.01-1.04-1.52-1.55c-15.64-15.63-33.87-27.9-54.15-36.46
		c-21.02-8.88-43.33-13.38-66.32-13.38h-24.5v194.51H77.6h0H172.02z M74.72,483.85V388.7c23.4,4.65,44.92,16.07,62.19,33.32
		c17.18,17.17,28.63,38.56,33.35,61.83H74.72z"/>
	<path d="M240.78,532.36h75.99v95.15c-23.41-4.64-44.92-16.07-62.19-33.32c-5.12-5.11-9.74-10.61-13.8-16.41v68.21
		c10.43,7.57,21.7,13.93,33.69,18.99c21.02,8.88,43.33,13.39,66.32,13.39h24.49V483.85h-46.53h-77.97V532.36z"/>
	<polygon class="st3" points="220.9,678.37 221.21,678.37 221.21,532.36 221.25,532.36 221.25,530.68 221.21,508.11 221.21,388.85 
		220.9,388.85 	"/>
	<text transform="matrix(1.0559 0 0 1 417.0117 500.4492)" class="st4 st5">Shabayek</text>
	<text transform="matrix(1 0 0 1 419.4883 603.3701)" class="st1 st4 st6">Design</text>
</g>
</svg>
